<?xml version="1.0" encoding="utf-8"?>
<!-- Generator: Adobe Illustrator 21.0.0, SVG Export Plug-In . SVG Version: 6.00 Build 0)  -->
<svg version="1.1" id="Camada_2" xmlns="http://www.w3.org/2000/svg" xmlns:xlink="http://www.w3.org/1999/xlink" x="0px" y="0px"
	 viewBox="0 0 2000 2000" style="enable-background:new 0 0 2000 2000;" xml:space="preserve">
<g>
	<g>
		<path d="M1092.8,1041.3c0,318.4-233.1,534.8-579,534.8H64.4v-1068h460.1C862.7,508.1,1092.8,724.4,1092.8,1041.3z M807.9,1044.4
			c0-184.4-120.4-309.3-289.5-309.3H343.2v615.5h188.9C693.6,1350.6,807.9,1227.2,807.9,1044.4z"/>
	</g>
	<g>
		<path d="M923.7,83L1419,835.5l185.3-279.4h303.2l-324.3,470.3l352.4,513.8h-307.4L1419,1235.6L925.7,2000l1.9-476.2l335.5-484.8
			L927.7,556.1L923.7,83z"/>
	</g>
</g>
</svg>
