<?xml version="1.0" encoding="iso-8859-1"?>
<!-- Generator: Adobe Illustrator 19.0.0, SVG Export Plug-In . SVG Version: 6.00 Build 0)  -->
<svg version="1.1" id="Capa_1" xmlns="http://www.w3.org/2000/svg" xmlns:xlink="http://www.w3.org/1999/xlink" x="0px" y="0px"
	 viewBox="0 0 512 512" style="enable-background:new 0 0 512 512;" xml:space="preserve">
<g>
	<g>
		<path d="M0,0v512h150V150h362V83V0H0z M482,83v37h-45.75V83h-30v37H360.5V83h-30v37h-45.75V83h-30v37H209V83h-30v37h-59v59H68v30
			h52v45.75H68v30h52v45.75H68v30h52v45.75H68v30h52V482H30V30h452V83z"/>
	</g>
</g>
<g>
	<g>
		<path d="M180,180v170h170V180H180z M298.787,210L265,243.787L231.213,210H298.787z M210,231.213L243.787,265L210,298.787V231.213z
			 M231.213,320L265,286.213L298.787,320H231.213z M320,298.787L286.213,265L320,231.213V298.787z"/>
	</g>
</g>
<g>
	<g>
		<rect x="386" y="180" width="111" height="30"/>
	</g>
</g>
<g>
	<g>
		<rect x="386" y="245" width="111" height="30"/>
	</g>
</g>
<g>
	<g>
		<rect x="386" y="313" width="111" height="30"/>
	</g>
</g>
<g>
	<g>
		<path d="M180,375v123h317V375H180z M403.997,405L338.5,421.056L273.003,405H403.997z M210,420.445l65.497,16.056L210,452.556
			V420.445z M273.003,468l65.497-16.056L403.997,468H273.003z M467,452.555L401.503,436.5L467,420.444V452.555z"/>
	</g>
</g>
<g>
</g>
<g>
</g>
<g>
</g>
<g>
</g>
<g>
</g>
<g>
</g>
<g>
</g>
<g>
</g>
<g>
</g>
<g>
</g>
<g>
</g>
<g>
</g>
<g>
</g>
<g>
</g>
<g>
</g>
</svg>
