<svg id="Camada_1" data-name="Camada 1" xmlns="http://www.w3.org/2000/svg" viewBox="0 0 1337.53 518"><defs><style>.cls-1,.cls-6{fill:#6b058c;}.cls-2{fill:#fffcfc;}.cls-3,.cls-5{font-size:374.07px;font-family:Montserrat-Light, Montserrat;letter-spacing:-0.02em;}.cls-3{fill:#b66464;}.cls-4{letter-spacing:0em;}.cls-5{fill:#fff;}.cls-6{letter-spacing:0em;}</style></defs><title>logo-menu-mobile</title><path class="cls-1" d="M1081.7,8l133.85,203.33,50.07-75.49h81.93l-87.62,127.07,95.21,138.83h-83.07l-56.52-82.31L1082.26,526l.52-128.67,90.67-131-90.67-130.49Z" transform="translate(-17.61 -8)"/><path class="cls-2" d="M351.08,266.19c0,103.25-75.59,173.41-187.73,173.41H17.61V93.28h149.2C276.48,93.28,351.08,163.43,351.08,266.19Zm-92.38,1c0-59.78-39-100.29-93.87-100.29H108V366.48h61.26C221.65,366.48,258.7,326.46,258.7,267.18Z" transform="translate(-17.61 -8)"/><text class="cls-3" transform="translate(326.34 368.73) scale(1.19 1)">e<tspan class="cls-4" x="213.59" y="0">vu</tspan></text><text class="cls-5" transform="translate(326.34 368.73) scale(1.19 1)">e<tspan class="cls-4" x="213.59" y="0">v</tspan><tspan class="cls-6" x="399.87" y="0">u</tspan></text></svg>