<?xml version="1.0" encoding="utf-8"?>
<!-- Generator: Adobe Illustrator 21.0.0, SVG Export Plug-In . SVG Version: 6.00 Build 0)  -->
<svg version="1.1" id="Camada_1" xmlns="http://www.w3.org/2000/svg" xmlns:xlink="http://www.w3.org/1999/xlink" x="0px" y="0px"
	 viewBox="0 0 1366 528" style="enable-background:new 0 0 1366 528;" xml:space="preserve">
<style type="text/css">
	.st0{fill:#6B058C;}
	.st1{fill:#FFFCFC;}
	.st2{fill:#B66464;}
	.st3{font-family:'Montserrat-Light';}
	.st4{font-size:374.0689px;}
	.st5{fill:#FFFFFF;}
</style>
<g>
	<g>
		<path class="st0" d="M1081.7,8l133.9,203.3l50.1-75.5h81.9l-87.6,127.1l95.2,138.8h-83.1l-56.5-82.3L1082.3,526l0.5-128.7
			l90.7-131l-90.7-130.5L1081.7,8z"/>
	</g>
</g>
<g>
	<path class="st1" d="M351.1,266.2c0,103.3-75.6,173.4-187.7,173.4H17.6V93.3h149.2C276.5,93.3,351.1,163.4,351.1,266.2z
		 M258.7,267.2c0-59.8-39-100.3-93.9-100.3H108v199.6h61.3C221.6,366.5,258.7,326.5,258.7,267.2z"/>
</g>
<g>
	<text transform="matrix(1.1909 0 0 1 343.9492 376.7344)" class="st2 st3 st4">evu</text>
	<g>
		<path class="st5" d="M588.5,289.2H397c5.8,38.9,39.2,64.3,85.1,64.3c29,0,54.4-9,72.6-25.1l19.2,16.8
			c-22.3,20.6-55.2,32.5-94.4,32.5c-69.1,0-116.7-40.8-116.7-99.5c0-58.7,48.1-99.1,116.3-99.5C554.7,178.9,592.1,222.6,588.5,289.2
			z M557.3,266c-2.2-38.2-32.5-62.8-78.4-62.8c-45,0-77.1,24.7-82,62.8H557.3z"/>
		<path class="st5" d="M637.1,180l74.8,167.2L786.3,180h35.2l-92.2,196.8h-36.1L600.1,180H637.1z"/>
		<path class="st0" d="M1066.1,180v196.8h-34.7v-44.5c-15.6,30.7-46.8,45.3-89.1,45.6c-54.8,0-87.8-29.2-87.8-76.7V180h34.7v113.7
			c0,35.2,24.5,56.1,65,56.1c48.6-0.7,77.1-30.7,77.1-73.3V180H1066.1z"/>
	</g>
</g>
</svg>
